PathFileType	3	(X/Y/Z)	C:\Users\koon_\Desktop\
DataRate	CameraRate	NumFrames	NumMarkers	Units	OrigDataRate	OrigDataStartFrame	OrigNumFrames
100.0	100.0	4	27	mm	100.0	1488	3966	
Frame#	Time	GM:LFHD			GM:RFHD			GM:LBHD			GM:RBHD			GM:C7			GM:T10			GM:CLAV			GM:STRN			GM:RBAK			GM:LSHO			GM:LUPA			GM:LELB			GM:LFRA			GM:LWRA			GM:LWRB			GM:LFIN			GM:RSHO			GM:RUPA			GM:RELB			GM:RFRA			GM:RWRA			GM:RWRB			GM:RFIN			GM:LASI			GM:RASI			GM:LPSI			GM:RPSI			
		X1	Y1	Z1	X2	Y2	Z2	X3	Y3	Z3	X4	Y4	Z4	X5	Y5	Z5	X6	Y6	Z6	X7	Y7	Z7	X8	Y8	Z8	X9	Y9	Z9	X10	Y10	Z10	X11	Y11	Z11	X12	Y12	Z12	X13	Y13	Z13	X14	Y14	Z14	X15	Y15	Z15	X16	Y16	Z16	X17	Y17	Z17	X18	Y18	Z18	X19	Y19	Z19	X20	Y20	Z20	X21	Y21	Z21	X22	Y22	Z22	X23	Y23	Z23	X24	Y24	Z24	X25	Y25	Z25	X26	Y26	Z26	X27	Y27	Z27	
1488	14.87	81.38166	1605.0042	-101.37112	-72.722626	1600.5422	-106.47742	86.599762	1585.2086	-233.15747	-76.85965	1583.9945	-221.22182	12.99704	1415.537	-275.30502	10.692353	1219.9034	-315.30237	10.693398	1358.9194	-118.89422	7.6920404	1212.5682	-68.199158	-86.248093	1302.3435	-311.18359	170.80066	1396.9827	-179.33003	230.32849	1374.3475	-98.61898	288.15475	1283.2612	77.034775	164.76215	1339.5448	148.74355	120.06261	1357.4553	200.94534	159.16769	1336.0929	251.23643	74.145203	1386.0352	267.20508	-161.43466	1403.6261	-177.89935	-251.65198	1262.8048	-38.734356	-303.06894	1191.3319	15.139145	-203.55815	1218.9305	9.9164667	-86.312874	1191.5104	30.835215	-99.230087	1143.1486	69.988976	-1.7316277	1169.7805	56.855068	138.87158	903.24823	-97.321953	-153.16849	908.87628	-88.937248	55.31509	949.68146	-306.42126	-81.275352	941.47693	-302.85599
1489	14.88	80.922913	1604.9292	-102.15721	-73.167595	1600.4255	-107.18034	86.083015	1585.2831	-233.87218	-77.362541	1584.0745	-221.98216	13.167513	1415.3931	-276.22705	11.079733	1219.7808	-316.00037	10.168502	1359.0791	-119.80038	6.8621821	1212.7117	-68.879036	-86.184013	1302.0729	-311.67508	170.66797	1397.1163	-178.3584	228.17854	1375.7837	-96.736275	283.49704	1286.2278	80.623123	158.39436	1339.6499	152.02469	112.78063	1356.0786	203.97769	152.14882	1335.4473	254.3835	66.229691	1383.7186	269.4361	-160.54758	1404.6851	-179.36441	-247.95242	1270.5392	-33.780552	-297.25589	1201.6727	25.007538	-198.70862	1230.9412	13.637346	-80.068398	1206.5491	29.168991	-89.698326	1158.7709	70.121758	6.8336825	1187.4939	51.541328	138.94943	903.3208	-97.680084	-153.1678	908.93732	-89.50576	55.490944	949.49738	-306.47769	-81.086227	941.3681	-303.35001
1490	14.89	80.398285	1604.8552	-102.93057	-73.668251	1600.3752	-107.80563	85.463554	1585.4067	-234.71637	-77.964294	1584.1049	-222.63239	13.233899	1415.2936	-277.03772	11.419086	1219.7119	-316.66928	9.6694002	1359.1523	-120.68832	6.1536965	1212.7649	-69.571648	-86.245712	1301.7626	-312.09161	170.1436	1397.3448	-177.55292	226.03635	1377.1537	-95.05265	278.94577	1288.5944	83.801155	152.03238	1338.5228	154.67149	105.15662	1352.894	206.17905	144.72902	1333.0367	256.90787	57.67984	1379.2213	270.92911	-159.7086	1405.8096	-180.83867	-243.6111	1278.45	-29.100838	-290.95209	1212.52	34.427799	-193.46841	1242.6951	16.975714	-74.261444	1222.045	27.945114	-80.744888	1175.1923	70.262581	14.209687	1205.3949	45.844299	139.03391	903.35138	-97.934692	-153.10419	908.98163	-89.943962	55.613853	949.45123	-306.95401	-80.858284	941.22302	-303.76822
1491	14.9	79.852158	1604.8116	-103.67366	-74.179932	1600.3623	-108.36852	84.791161	1585.4862	-235.58241	-78.598984	1584.193	-223.27577	13.148172	1415.2722	-277.77264	11.514883	1219.6583	-317.31479	9.1166477	1359.1324	-121.41093	5.3870587	1212.7234	-70.242142	-86.408463	1301.49	-312.45105	169.14296	1397.626	-176.75806	223.94739	1378.463	-93.478104	274.65076	1290.4462	86.565041	145.28452	1335.9197	156.71014	97.405777	1348.2081	207.76326	137.27063	1329.0359	258.88538	48.926414	1373.0972	271.87857	-158.93294	1407.001	-182.32388	-239.22218	1287.4221	-24.65905	-284.60767	1224.0458	43.301239	-188.46269	1255.1089	19.993969	-68.111908	1237.7648	26.170483	-72.072914	1192.5409	70.703911	20.702421	1224.2373	40.512035	139.1346	903.43604	-98.216217	-153.04976	909.01392	-90.331619	55.818474	949.50018	-307.48941	-80.614647	941.11725	-304.21616
